<svg width="32" height="44" xmlns="http://www.w3.org/2000/svg" xmlns:xlink="http://www.w3.org/1999/xlink"><defs><linearGradient x1="100%" y1="61.051%" x2="0%" y2="61.051%" id="c"><stop stop-color="#5B7EFB" offset="0%"/><stop stop-color="#8A61FA" offset="100%"/></linearGradient><path d="M24 4c-7.73 0-14 6.27-14 14 0 10.5 14 26 14 26s14-15.5 14-26c0-7.73-6.27-14-14-14z" id="b"/><filter x="-12.5%" y="-6.2%" width="125%" height="117.5%" filterUnits="objectBoundingBox" id="a"><feOffset dy="1" in="SourceAlpha" result="shadowOffsetOuter1"/><feGaussianBlur stdDeviation="1" in="shadowOffsetOuter1" result="shadowBlurOuter1"/><feColorMatrix values="0 0 0 0 0 0 0 0 0 0 0 0 0 0 0 0 0 0 0.5 0" in="shadowBlurOuter1"/></filter></defs><g fill="none" fill-rule="evenodd"><g fill-rule="nonzero" transform="translate(-8 -3)"><use fill="#000" filter="url(#a)" xlink:href="#b"/><use fill="url(#c)" fill-rule="evenodd" xlink:href="#b"/></g><path d="M13.565 16.343c0-.727-.603-1.32-1.345-1.32-.74 0-1.344.593-1.344 1.32 0 .727.603 1.319 1.344 1.319.742 0 1.345-.592 1.345-1.32zm-1.345.687a.695.695 0 0 1-.7-.687c0-.38.314-.688.7-.688.387 0 .701.309.701.688 0 .38-.314.687-.7.687zm13.39 3.71l-2.822-.693a.324.324 0 0 0-.39.23.315.315 0 0 0 .234.382l2.78.683c-1.33 3.564-4.823 6.116-8.912 6.116s-7.581-2.552-8.911-6.116l2.78-.683a.315.315 0 0 0 .233-.383.324.324 0 0 0-.39-.23l-2.821.693a9.158 9.158 0 0 1-.239-1.017h3.138a.319.319 0 0 0 .322-.316.319.319 0 0 0-.322-.316H7.063a9.21 9.21 0 0 1-.048-.937c0-.058.003-.114.004-.172l3.193.784a.321.321 0 0 0 .39-.23.316.316 0 0 0-.234-.382l-3.315-.814a9.14 9.14 0 0 1 1.964-4.894c.039-.049.077-.098.117-.145.117-.142.237-.28.362-.415.046-.05.094-.097.142-.146.09-.092.18-.183.274-.27a9.523 9.523 0 0 1 .573-.504c.054-.045.111-.087.167-.13.107-.083.216-.163.326-.24a9.502 9.502 0 0 1 .654-.424l.082-.047c.167-.096.338-.188.512-.274l.054-.027c.2-.098.403-.189.61-.273l.004-.002a9.6 9.6 0 0 1 3.606-.7 9.6 9.6 0 0 1 3.606.7l.004.002a9.692 9.692 0 0 1 1.176.574l.083.047c.167.098.33.202.49.31a9.679 9.679 0 0 1 .488.353l.17.13a9.485 9.485 0 0 1 .844.773c.048.05.097.098.144.149.124.134.244.271.36.412l.12.15a9.138 9.138 0 0 1 1.961 4.891l-3.314.814a.315.315 0 0 0 .078.622.333.333 0 0 0 .078-.01l3.193-.784c0 .058.004.114.004.172 0 .316-.016.629-.048.937H22.71a.319.319 0 0 0-.322.316c0 .175.144.316.322.316h3.138c-.06.346-.14.685-.239 1.017zM8.22 12.435c-.452-.669-.878-1.698-1.082-2.64-.267-1.237-.143-2.167.342-2.552.204-.162.488-.244.846-.244 1.284 0 3.208 1.053 4.175 2.025-.2.085-.397.177-.59.275l-.082.04a10.157 10.157 0 0 0-.574.315 9.49 9.49 0 0 0-.496.318c-.066.044-.13.09-.195.136-.1.071-.199.145-.296.22-.067.051-.135.101-.2.154-.136.11-.269.223-.399.34-.07.063-.137.128-.206.193-.08.076-.158.152-.235.23l-.188.193c-.124.133-.245.27-.363.409l-.12.151a9.974 9.974 0 0 0-.268.346c-.023.031-.048.06-.07.091zM24.673 7c.358 0 .642.082.846.244.485.385.61 1.315.342 2.552-.204.942-.63 1.971-1.08 2.64-.024-.033-.05-.063-.075-.096a9.337 9.337 0 0 0-.259-.335c-.042-.053-.083-.107-.127-.159a9.688 9.688 0 0 0-.36-.406 10.396 10.396 0 0 0-.424-.425c-.068-.064-.136-.129-.206-.192a9.892 9.892 0 0 0-.4-.34c-.064-.053-.13-.102-.196-.153-.1-.075-.2-.15-.3-.222-.064-.046-.128-.09-.193-.135a10.11 10.11 0 0 0-.498-.318l-.012-.007a10.15 10.15 0 0 0-.562-.308l-.08-.04c-.193-.097-.39-.19-.59-.275C21.466 8.053 23.39 7 24.673 7zm-8.875 12.406c0-.38.315-.688.701-.688.387 0 .7.309.7.688 0 .38-.313.688-.7.688a.695.695 0 0 1-.7-.688zm4.135 1.453a.319.319 0 0 0-.322.316c0 .754-.626 1.368-1.395 1.368-.77 0-1.395-.614-1.395-1.368v-.493a1.323 1.323 0 0 0 1.022-1.276c0-.727-.603-1.319-1.344-1.319-.741 0-1.344.592-1.344 1.32 0 .617.437 1.133 1.022 1.275v.493c0 .754-.625 1.368-1.395 1.368s-1.395-.614-1.395-1.368a.319.319 0 0 0-.322-.316.319.319 0 0 0-.321.316c0 1.102.914 2 2.038 2 .723 0 1.355-.374 1.717-.932.362.558.994.931 1.717.931 1.124 0 2.038-.897 2.038-2a.318.318 0 0 0-.321-.315zm.846-3.829a.695.695 0 0 1-.701-.687c0-.38.314-.688.7-.688.387 0 .702.309.702.688 0 .38-.315.687-.701.687zm0-2.006c-.741 0-1.345.592-1.345 1.319s.604 1.319 1.345 1.319 1.344-.592 1.344-1.32c0-.726-.603-1.318-1.344-1.318z" fill="#FFF"/><path d="M-8-3h48v48H-8z"/></g></svg>