<svg width="34" height="33" xmlns="http://www.w3.org/2000/svg"><path d="M12.258 14.906a1.98 1.98 0 0 0-1.987-1.971 1.981 1.981 0 0 0-1.986 1.97 1.98 1.98 0 0 0 1.986 1.972 1.981 1.981 0 0 0 1.987-1.971zm-1.987 1.028c-.57 0-1.035-.461-1.035-1.028 0-.566.464-1.028 1.035-1.028.572 0 1.037.462 1.037 1.028 0 .567-.465 1.028-1.037 1.028zm19.788 5.543l-4.17-1.036a.47.47 0 1 0-.23.915l4.108 1.02a14.038 14.038 0 0 1-13.17 9.14 14.037 14.037 0 0 1-13.17-9.14l4.107-1.02a.471.471 0 1 0-.23-.915l-4.17 1.036a13.816 13.816 0 0 1-.353-1.52H7.42a.474.474 0 0 0 .475-.473.474.474 0 0 0-.475-.472H2.65c-.046-.46-.07-.928-.07-1.401 0-.086.004-.17.006-.256l4.719 1.171a.475.475 0 0 0 .577-.343.472.472 0 0 0-.347-.572l-4.9-1.216A13.753 13.753 0 0 1 5.538 9.08l.172-.218c.173-.211.352-.418.536-.619.068-.074.14-.146.21-.219.132-.137.267-.272.404-.404.086-.082.171-.165.258-.244.192-.175.388-.346.589-.51.081-.066.165-.128.248-.193.158-.123.318-.243.481-.36l.24-.169c.238-.16.479-.317.726-.463l.122-.07c.247-.144.5-.28.757-.41l.08-.04c.295-.146.595-.282.902-.407l.006-.004a14.03 14.03 0 0 1 5.329-1.046c1.886 0 3.685.373 5.329 1.046.002 0 .004.003.006.004a14.245 14.245 0 0 1 1.738.857l.122.07c.247.146.489.302.726.463l.24.17c.163.116.323.236.48.359.084.064.169.127.25.194a14.06 14.06 0 0 1 1.248 1.155c.071.074.144.147.213.222.184.2.361.406.533.616.06.074.118.149.177.224a13.75 13.75 0 0 1 2.899 7.31l-4.9 1.216a.471.471 0 1 0 .232.915l4.718-1.171c.002.085.007.17.007.256 0 .473-.024.94-.07 1.401h-4.77a.474.474 0 0 0-.476.472c0 .261.213.472.475.472h4.638a13.564 13.564 0 0 1-.353 1.52zM4.36 9.067c-.67-.998-1.3-2.537-1.6-3.944-.395-1.848-.21-3.239.506-3.814.3-.242.721-.365 1.25-.365 1.897 0 4.74 1.573 6.17 3.027-.296.127-.586.265-.873.41l-.12.061c-.28.145-.556.296-.825.457l-.023.013c-.25.15-.493.31-.733.475-.097.066-.192.135-.288.203a15.63 15.63 0 0 0-.438.329c-.1.077-.2.152-.296.23-.2.165-.396.334-.589.509-.103.093-.203.191-.304.288a16.14 16.14 0 0 0-.348.344c-.093.096-.187.19-.277.289-.184.199-.364.402-.537.61l-.178.226c-.136.17-.268.342-.396.518-.033.046-.07.09-.103.136zM28.676.944c.529 0 .95.123 1.25.365.717.575.9 1.966.506 3.814-.301 1.408-.93 2.946-1.597 3.945-.035-.05-.075-.094-.11-.143-.124-.17-.252-.336-.382-.5-.063-.08-.124-.16-.189-.238-.171-.207-.35-.41-.533-.606-.091-.1-.186-.195-.28-.292a16.039 16.039 0 0 0-.346-.344c-.1-.096-.2-.193-.304-.287a14.665 14.665 0 0 0-.59-.51c-.096-.077-.194-.151-.291-.227a15.31 15.31 0 0 0-.444-.332 14.92 14.92 0 0 0-1.02-.677l-.018-.01a15.176 15.176 0 0 0-.948-.52 14.846 14.846 0 0 0-.874-.41c1.43-1.455 4.273-3.028 6.17-3.028zm4.04 19.013a.473.473 0 0 0 .476-.472.473.473 0 0 0-.476-.472h-1.22c.044-.461.069-.929.069-1.401 0-.165-.007-.328-.013-.491l1.131-.28a.472.472 0 0 0 .346-.573.478.478 0 0 0-.577-.343l-.96.238a14.67 14.67 0 0 0-2.1-6.251c.826-1.09 1.608-2.898 1.97-4.593.479-2.24.181-3.924-.837-4.743C30.052.194 29.429 0 28.677 0 26.21 0 22.91 2.08 21.56 3.603a15.011 15.011 0 0 0-4.963-.842c-1.74 0-3.41.3-4.963.842C10.284 2.08 6.985 0 4.516 0c-.752 0-1.374.194-1.849.575-1.018.819-1.315 2.503-.836 4.743C2.193 7.013 2.974 8.82 3.8 9.91a14.67 14.67 0 0 0-2.1 6.252l-.96-.238a.471.471 0 1 0-.23.915l1.13.281c-.005.163-.012.326-.012.49 0 .473.024.94.068 1.402H.476a.474.474 0 0 0-.476.472c0 .261.213.472.476.472h1.34c.096.596.23 1.18.395 1.75l-1.702.423a.47.47 0 1 0 .23.915l1.763-.438a14.986 14.986 0 0 0 14.095 9.854 14.986 14.986 0 0 0 14.095-9.854l1.761.438a.475.475 0 0 0 .577-.343.471.471 0 0 0-.346-.572l-1.702-.423c.165-.57.3-1.154.395-1.75h1.34zm-17.156-.472c0-.567.465-1.028 1.036-1.028.57 0 1.035.461 1.035 1.028s-.464 1.028-1.035 1.028-1.036-.461-1.036-1.028zm6.11 2.171a.474.474 0 0 0-.475.472 2.056 2.056 0 0 1-2.062 2.045 2.056 2.056 0 0 1-2.062-2.045v-.736a1.973 1.973 0 0 0 1.511-1.907 1.981 1.981 0 0 0-1.986-1.971 1.98 1.98 0 0 0-1.987 1.971c0 .923.646 1.695 1.511 1.907v.736a2.056 2.056 0 0 1-2.062 2.045 2.056 2.056 0 0 1-2.062-2.045.474.474 0 0 0-.475-.472.474.474 0 0 0-.475.472c0 1.648 1.351 2.989 3.012 2.989a3.011 3.011 0 0 0 2.538-1.392 3.012 3.012 0 0 0 2.537 1.392c1.661 0 3.013-1.34 3.013-2.989a.473.473 0 0 0-.476-.472zm1.25-5.721c-.57 0-1.035-.461-1.035-1.028 0-.566.464-1.028 1.036-1.028.57 0 1.036.462 1.036 1.028 0 .567-.465 1.028-1.036 1.028zm0-3a1.981 1.981 0 0 0-1.986 1.972 1.98 1.98 0 0 0 1.987 1.971 1.981 1.981 0 0 0 1.986-1.971 1.98 1.98 0 0 0-1.986-1.971z" fill="#2F3B52" fill-rule="evenodd"/></svg>