<svg width="44" height="31" xmlns="http://www.w3.org/2000/svg"><path d="M17.127 12.507a1.973 1.973 0 0 0-1.971-1.971 1.971 1.971 0 0 0 0 3.941c1.087 0 1.97-.883 1.97-1.97zm-1.971 1.027a1.028 1.028 0 0 1 0-2.054c.566 0 1.028.46 1.028 1.027a1.03 1.03 0 0 1-1.028 1.027zm11.88 4.79a.473.473 0 0 0-.561.36c-.156.72-.982 1.203-2.056 1.203-.764 0-2.046-.144-2.046-1.103v-.735a1.97 1.97 0 0 0 1.5-1.908 1.971 1.971 0 0 0-3.941 0c0 .924.64 1.695 1.499 1.908v.735c0 .96-1.282 1.103-2.046 1.103-1.074 0-1.9-.484-2.056-1.203a.472.472 0 0 0-.922.2c.21.964 1.07 1.657 2.226 1.87-.002.013-.008.024-.008.038v3.736a3.284 3.284 0 0 0 3.28 3.28 3.285 3.285 0 0 0 3.282-3.28v-3.724l-.208-.01c1.255-.167 2.197-.892 2.418-1.91a.472.472 0 0 0-.361-.56zm-6.162-2.183a1.029 1.029 0 0 1 2.055 0 1.029 1.029 0 0 1-2.055 0zm1.032 10.725a2.34 2.34 0 0 1-2.338-2.338V20.82c1.071-.028 1.87-.303 2.334-.794.465.492 1.266.767 2.342.795v3.707a2.34 2.34 0 0 1-2.338 2.338zm13.662-4.984a15.117 15.117 0 0 0 1.544-6.671c0-4.469-1.937-8.493-5.016-11.279 4.725 1.028 10.765 7.399 10.765 11.802 0 4.17-2.196 6.026-7.293 6.148zm-13.666 7.597c-7.868 0-14.268-6.4-14.268-14.268 0-7.867 6.4-14.267 14.268-14.267 7.867 0 14.268 6.4 14.268 14.267 0 7.868-6.401 14.268-14.268 14.268zM.942 15.734c0-4.404 6.04-10.774 10.765-11.802a15.176 15.176 0 0 0-5.016 11.279c0 2.392.557 4.655 1.544 6.67C3.138 21.76.943 19.906.943 15.735zm42.862 0c0-5.301-7.627-12.891-12.954-12.891-.03 0-.055.014-.084.02A15.12 15.12 0 0 0 21.902 0a15.124 15.124 0 0 0-8.865 2.862c-.028-.005-.055-.02-.084-.02C7.626 2.843 0 10.433 0 15.735c0 6.351 4.984 7.1 8.75 7.103 2.636 4.53 7.542 7.586 13.152 7.586 5.61 0 10.515-3.055 13.152-7.586 3.765-.004 8.75-.752 8.75-7.103zm-15.157-2.2a1.028 1.028 0 0 1 0-2.054 1.028 1.028 0 0 1 0 2.054zm0-2.998c-1.086 0-1.97.884-1.97 1.971 0 1.087.884 1.97 1.97 1.97a1.972 1.972 0 0 0 1.971-1.97 1.973 1.973 0 0 0-1.97-1.971z" fill="#2F3B52" fill-rule="evenodd"/></svg>