<svg width="28" height="40" xmlns="http://www.w3.org/2000/svg"><defs><linearGradient x1="100%" y1="61.051%" x2="0%" y2="61.051%" id="a"><stop stop-color="#5B7EFB" offset="0%"/><stop stop-color="#8A61FA" offset="100%"/></linearGradient></defs><g fill="none" fill-rule="evenodd"><path d="M24 4c-7.73 0-14 6.27-14 14 0 10.5 14 26 14 26s14-15.5 14-26c0-7.73-6.27-14-14-14z" fill="url(#a)" fill-rule="nonzero" transform="translate(-10 -4)"/><path d="M11.624 12.201c0-.677-.525-1.227-1.172-1.227-.646 0-1.172.55-1.172 1.227s.526 1.228 1.172 1.228c.647 0 1.172-.55 1.172-1.228zm-1.172.64c-.337 0-.61-.287-.61-.64 0-.352.273-.64.61-.64.337 0 .611.288.611.64 0 .353-.274.64-.61.64zm7.065 2.983a.282.282 0 0 0-.334.224c-.092.448-.584.75-1.223.75-.454 0-1.216-.09-1.216-.687v-.458c.51-.133.892-.613.892-1.189 0-.676-.526-1.227-1.172-1.227-.647 0-1.172.55-1.172 1.227 0 .576.381 1.056.892 1.189v.458c0 .597-.763.686-1.217.686-.639 0-1.13-.3-1.223-.749a.282.282 0 0 0-.333-.224.294.294 0 0 0-.215.35c.125.599.636 1.031 1.324 1.164-.001.008-.005.014-.005.023v2.327c0 1.126.875 2.043 1.951 2.043s1.951-.917 1.951-2.043v-2.32l-.124-.006c.747-.104 1.307-.555 1.438-1.19a.294.294 0 0 0-.214-.348zm-3.664-1.36c0-.352.274-.64.61-.64.338 0 .612.288.612.64 0 .353-.274.64-.611.64-.337 0-.611-.287-.611-.64zm.613 6.68c-.767 0-1.39-.653-1.39-1.456v-2.31c.637-.017 1.112-.188 1.388-.494.276.306.753.478 1.393.495v2.309c0 .803-.624 1.456-1.39 1.456zm8.125-3.104a9.782 9.782 0 0 0 .918-4.155c0-2.783-1.152-5.29-2.983-7.024 2.81.64 6.401 4.608 6.401 7.35 0 2.597-1.305 3.753-4.336 3.829zm-8.127 4.731c-4.679 0-8.485-3.986-8.485-8.886C5.98 8.985 9.785 5 14.464 5c4.678 0 8.484 3.986 8.484 8.885 0 4.9-3.806 8.886-8.484 8.886zM2 14.211c0-2.742 3.592-6.71 6.401-7.35-1.83 1.735-2.983 4.241-2.983 7.024 0 1.49.331 2.9.919 4.155C3.305 17.964 2 16.808 2 14.21zm16.475-1.37c-.337 0-.61-.287-.61-.64 0-.352.273-.64.61-.64.337 0 .612.288.612.64 0 .353-.275.64-.612.64zm0-1.867c-.646 0-1.172.55-1.172 1.227s.526 1.228 1.172 1.228c.647 0 1.172-.55 1.172-1.228 0-.677-.525-1.227-1.172-1.227z" fill="#F6F6F8"/><path d="M-10-4h48v48h-48z"/></g></svg>