<?xml version="1.0" encoding="UTF-8"?>
<svg width="32px" height="44px" viewBox="0 0 32 44" version="1.1" xmlns="http://www.w3.org/2000/svg" xmlns:xlink="http://www.w3.org/1999/xlink">
    <!-- Generator: Sketch 43.2 (39069) - http://www.bohemiancoding.com/sketch -->
    <title>ic_place_48px</title>
    <desc>Created with Sketch.</desc>
    <defs>
        <linearGradient x1="100%" y1="61.0514343%" x2="0%" y2="61.0514343%" id="linearGradient-1">
            <stop stop-color="#5B7EFB" offset="0%"></stop>
            <stop stop-color="#8A61FA" offset="100%"></stop>
        </linearGradient>
        <path d="M24,4 C16.27,4 10,10.27 10,18 C10,28.5 24,44 24,44 C24,44 38,28.5 38,18 C38,10.27 31.73,4 24,4 Z" id="path-2"></path>
        <filter x="-12.5%" y="-6.2%" width="125.0%" height="117.5%" filterUnits="objectBoundingBox" id="filter-3">
            <feOffset dx="0" dy="1" in="SourceAlpha" result="shadowOffsetOuter1"></feOffset>
            <feGaussianBlur stdDeviation="1" in="shadowOffsetOuter1" result="shadowBlurOuter1"></feGaussianBlur>
            <feColorMatrix values="0 0 0 0 0   0 0 0 0 0   0 0 0 0 0  0 0 0 0.5 0" type="matrix" in="shadowBlurOuter1"></feColorMatrix>
        </filter>
    </defs>
    <g id="Welcome" stroke="none" stroke-width="1" fill="none" fill-rule="evenodd">
        <g id="Main" transform="translate(-700.000000, -384.000000)">
            <g id="ic_place_48px" transform="translate(692.000000, 381.000000)">
                <g id="Shape" fill-rule="nonzero">
                    <use fill="black" fill-opacity="1" filter="url(#filter-3)" xlink:href="#path-2"></use>
                    <use fill="url(#linearGradient-1)" fill-rule="evenodd" xlink:href="#path-2"></use>
                </g>
                <g id="cat" transform="translate(15.000000, 10.000000)" fill="#FFFFFF">
                    <path d="M6.5645174,9.3425713 C6.5645174,8.61553746 5.96176295,8.02384376 5.22029136,8.02384376 C4.47919982,8.02384376 3.87606532,8.61553746 3.87606532,9.3425713 C3.87606532,10.069978 4.47919982,10.6616717 5.22029136,10.6616717 C5.96176295,10.6616717 6.5645174,10.069978 6.5645174,9.3425713 L6.5645174,9.3425713 Z M5.22029136,10.0304572 C4.83378362,10.0304572 4.5194848,9.72212025 4.5194848,9.3425713 C4.5194848,8.96376803 4.83378362,8.65505827 5.22029136,8.65505827 C5.6067991,8.65505827 5.92147797,8.96376803 5.92147797,9.3425713 C5.92147797,9.72212025 5.6067991,10.0304572 5.22029136,10.0304572 L5.22029136,10.0304572 Z M18.6093452,13.7394483 L15.7878767,13.0467155 C15.6160955,13.006449 15.4412739,13.1074881 15.3979485,13.2763837 C15.3546232,13.4452792 15.4591361,13.6164118 15.6316774,13.6589153 L18.4113407,14.3415814 C17.0815565,17.9062843 13.588545,20.4576138 9.5,20.4576138 C5.41145498,20.4576138 1.91882356,17.9062843 0.589039302,14.3415814 L3.3683226,13.6589153 C3.54086392,13.6164118 3.64537683,13.4452792 3.60243152,13.2763837 C3.55910617,13.1074881 3.38504467,13.006449 3.21212331,13.0467155 L0.390654797,13.7394483 C0.292602686,13.4072497 0.212792827,13.0679673 0.152365363,12.7219737 L3.29041298,12.7219737 C3.4678949,12.7219737 3.6119327,12.5806682 3.6119327,12.4061801 C3.6119327,12.2316919 3.4678949,12.0903864 3.29041298,12.0903864 L0.0630543315,12.0903864 C0.0315104352,11.7820495 0.0147883696,11.4692385 0.0147883696,11.1526992 C0.0147883696,11.0949093 0.0182087921,11.0386108 0.019348933,10.9811937 L3.21212331,11.7652718 C3.23834655,11.77161 3.26456979,11.7749656 3.29041298,11.7749656 C3.43483082,11.7749656 3.56556697,11.6791462 3.60243152,11.5356036 C3.64537683,11.3667081 3.54086392,11.1955755 3.3683226,11.1526992 L0.053173111,10.3387941 C0.201011372,8.67444584 0.796924981,7.13462545 1.72233929,5.83565831 C1.81735103,5.7025552 1.91578318,5.57243478 2.01687567,5.44492423 C2.05564046,5.39608247 2.0940252,5.34724071 2.13355008,5.29951746 C2.25060454,5.15783907 2.37107942,5.01951622 2.49573482,4.88529459 C2.54210055,4.83533431 2.59036651,4.78761107 2.63787238,4.73876931 C2.72718341,4.64667835 2.81839468,4.55645159 2.91150618,4.46808901 C2.96927331,4.41328185 3.02704045,4.35810184 3.08594772,4.30478603 C3.21592378,4.18771494 3.34818012,4.07362655 3.48423692,3.96401222 C3.53934373,3.91964451 3.59597072,3.87788667 3.65221767,3.83463748 C3.75901086,3.75224031 3.86770429,3.67170733 3.9779179,3.59415705 C4.03188457,3.55612759 4.08547119,3.51772529 4.14019795,3.48081434 C4.3009578,3.37306419 4.46399794,3.26866959 4.63159865,3.17061323 C4.65858198,3.1545812 4.68632541,3.13966769 4.71368879,3.1240085 C4.88128949,3.02781633 5.05193057,2.93609821 5.22599207,2.84997267 C5.24423432,2.84065172 5.26209653,2.83133077 5.28033878,2.8227555 C5.47986343,2.72544482 5.68280849,2.63409954 5.89031413,2.55021102 C5.89183431,2.54983818 5.89297445,2.54871967 5.89449464,2.54797399 C7.00689205,2.09758585 8.22380236,1.84778448 9.5,1.84778448 C10.7761976,1.84778448 11.993488,2.09758585 13.1058854,2.54797399 C13.1074056,2.54834683 13.1085457,2.54983818 13.1100659,2.55021102 C13.3171915,2.63409954 13.5205166,2.72544482 13.7200413,2.8227555 C13.7379035,2.83133077 13.7561457,2.84065172 13.7740079,2.84997267 C13.9480694,2.93609821 14.1187105,3.02781633 14.2863112,3.1240085 C14.3136746,3.13966769 14.341418,3.1545812 14.3687814,3.17061323 C14.5360021,3.26866959 14.6994222,3.37306419 14.8598021,3.48081434 C14.9145288,3.51772529 14.9681154,3.55612759 15.0220821,3.59415705 C15.1322957,3.67170733 15.2406091,3.75224031 15.3474023,3.83426464 C15.4036492,3.87751383 15.4610363,3.91964451 15.5161431,3.96438505 C15.6518199,4.07362655 15.7840762,4.18771494 15.9136722,4.30441319 C15.9733396,4.35810184 16.0314868,4.41365468 16.089634,4.46920753 C16.1816053,4.55645159 16.2720565,4.64593268 16.3606074,4.73727795 C16.4088734,4.78686539 16.4582795,4.83533431 16.5050253,4.88604026 C16.6293006,5.01951622 16.7490154,5.15709339 16.8653098,5.29802611 C16.9059748,5.34724071 16.9454997,5.39757382 16.9854046,5.44753409 C17.0842168,5.57243478 17.1803687,5.69957249 17.2731001,5.82969291 C18.2011748,7.12977856 18.7986086,8.67146314 18.9468269,10.3387941 L15.6316774,11.1526992 C15.4591361,11.1955755 15.3546232,11.3667081 15.3979485,11.5356036 C15.434433,11.6791462 15.5655492,11.7749656 15.709587,11.7749656 C15.7354302,11.7749656 15.7616535,11.77161 15.7878767,11.7652718 L18.9806511,10.9811937 C18.9817912,11.0386108 18.9852116,11.0949093 18.9852116,11.1526992 C18.9852116,11.4692385 18.9688696,11.7820495 18.9373257,12.0903864 L15.7099671,12.0903864 C15.5321051,12.0903864 15.3880673,12.2316919 15.3880673,12.4061801 C15.3880673,12.5806682 15.5321051,12.7219737 15.7099671,12.7219737 L18.8476346,12.7219737 C18.7875872,13.0679673 18.7077774,13.4072497 18.6093452,13.7394483 L18.6093452,13.7394483 Z M1.21915714,5.43634896 C0.767661366,4.76747782 0.341628742,3.73807247 0.13792358,2.79628401 C-0.129249422,1.55920797 -0.00459402452,0.628977484 0.479965829,0.243835966 C0.683670991,0.082024331 0.968326152,5.68434189e-14 1.32595033,5.68434189e-14 C2.6097489,5.68434189e-14 4.53354653,1.0525213 5.50114605,2.0252553 C5.30048127,2.11026233 5.103997,2.20235329 4.91017306,2.29966397 C4.88280968,2.31308613 4.85582634,2.32688114 4.82884301,2.34067614 C4.63957963,2.43724114 4.45297658,2.53828021 4.2709341,2.64603035 C4.26599349,2.64901305 4.26067283,2.65199576 4.25535217,2.65497846 C4.08623128,2.75564468 3.92129091,2.86264915 3.75901086,2.97300916 C3.69326274,3.01700403 3.62903481,3.06286309 3.56442683,3.10872215 C3.46409443,3.18030702 3.36528223,3.25375608 3.26761016,3.32869649 C3.2007219,3.38014811 3.13307355,3.43010839 3.06770547,3.48305137 C2.93202871,3.5926657 2.79939233,3.70638125 2.66941627,3.8230795 C2.59948764,3.88571626 2.53183928,3.95096289 2.46343083,4.01583668 C2.38362097,4.09152277 2.3053313,4.16832737 2.22818177,4.24625048 C2.16509398,4.3103786 2.10162614,4.37376103 2.04043858,4.4393805 C1.91578318,4.57248362 1.79454821,4.70856944 1.67749375,4.8480108 C1.63606863,4.89759824 1.5969238,4.94867703 1.55663882,4.99901014 C1.46504751,5.11235285 1.37573648,5.22793259 1.28908577,5.34537652 C1.26628296,5.37632206 1.24119986,5.40503058 1.21915714,5.43634896 L1.21915714,5.43634896 Z M17.6740497,5.68434189e-14 C18.0316738,5.68434189e-14 18.316329,0.082024331 18.5200342,0.243835966 C19.004594,0.628977484 19.1292494,1.55920797 18.8620764,2.79628401 C18.6583713,3.73807247 18.2323386,4.76747782 17.7812229,5.43560328 C17.75766,5.40279355 17.7310567,5.37259368 17.7071138,5.33978395 C17.6231234,5.22644124 17.5368527,5.11496272 17.4483018,5.00497554 C17.4057365,4.95203257 17.3646915,4.89797108 17.3209861,4.84614661 C17.2046917,4.70745092 17.0842168,4.57248362 16.9603215,4.44049901 C16.8983739,4.37413387 16.834526,4.31000576 16.7710581,4.24550481 C16.6939086,4.16758169 16.615999,4.09077709 16.5365692,4.01546384 C16.4685408,3.95096289 16.4008924,3.8860891 16.3309638,3.82345234 C16.2009877,3.70638125 16.0679713,3.5926657 15.9315344,3.48230569 C15.8669265,3.43010839 15.8004182,3.38089379 15.7346701,3.33018784 C15.6358579,3.25450175 15.5359056,3.17993418 15.434053,3.10760363 C15.3705851,3.06249025 15.3071173,3.01737687 15.2421293,2.973382 C15.0790891,2.86302199 14.9137687,2.75564468 14.7438877,2.65460562 C14.7400873,2.65236859 14.7359067,2.65013157 14.7321063,2.64789454 C14.5489237,2.53902588 14.3608004,2.43761398 14.1703969,2.33993046 C14.1437936,2.3265083 14.1171903,2.31308613 14.090587,2.30003681 C13.8967631,2.20272613 13.6998988,2.11026233 13.499234,2.0252553 C14.4668335,1.0525213 16.3902511,5.68434189e-14 17.6740497,5.68434189e-14 L17.6740497,5.68434189e-14 Z M8.79919344,12.4061801 C8.79919344,12.0266311 9.1138723,11.7182942 9.5,11.7182942 C9.88650774,11.7182942 10.2008066,12.0266311 10.2008066,12.4061801 C10.2008066,12.7853562 9.88650774,13.0936931 9.5,13.0936931 C9.1138723,13.0936931 8.79919344,12.7853562 8.79919344,12.4061801 L8.79919344,12.4061801 Z M12.9337241,13.8587564 C12.7562422,13.8587564 12.6122044,14.000062 12.6122044,14.1745501 C12.6122044,14.9291739 11.9862671,15.5432379 11.2170521,15.5432379 C10.447457,15.5432379 9.82151971,14.9291739 9.82151971,14.1745501 L9.82151971,13.6824041 C10.4071721,13.53998 10.844226,13.0239724 10.844226,12.4061801 C10.844226,11.6787734 10.2410915,11.0870797 9.5,11.0870797 C8.75890846,11.0870797 8.15615401,11.6787734 8.15615401,12.4061801 C8.15615401,13.0239724 8.59282794,13.53998 9.17848029,13.6824041 L9.17848029,14.1745501 C9.17848029,14.9291739 8.55254297,15.5432379 7.78332795,15.5432379 C7.01373289,15.5432379 6.38779557,14.9291739 6.38779557,14.1745501 C6.38779557,14.000062 6.24375778,13.8587564 6.06627586,13.8587564 C5.88879394,13.8587564 5.74475615,14.000062 5.74475615,14.1745501 C5.74475615,15.2774045 6.65914909,16.1744524 7.78332795,16.1744524 C8.50579719,16.1744524 9.13781526,15.8012417 9.5,15.2431034 C9.86218474,15.8012417 10.4942028,16.1744524 11.2170521,16.1744524 C12.3408509,16.1744524 13.2552439,15.2774045 13.2552439,14.1745501 C13.2552439,14.000062 13.1115861,13.8587564 12.9337241,13.8587564 L12.9337241,13.8587564 Z M13.7797086,10.0304572 C13.3932009,10.0304572 13.0789021,9.72212025 13.0789021,9.3425713 C13.0789021,8.96376803 13.3932009,8.65505827 13.7797086,8.65505827 C14.1662164,8.65505827 14.4808952,8.96376803 14.4808952,9.3425713 C14.4808952,9.72212025 14.1662164,10.0304572 13.7797086,10.0304572 L13.7797086,10.0304572 Z M13.7797086,8.02384376 C13.0386171,8.02384376 12.4354826,8.61553746 12.4354826,9.3425713 C12.4354826,10.069978 13.0386171,10.6616717 13.7797086,10.6616717 C14.5211802,10.6616717 15.1239347,10.069978 15.1239347,9.3425713 C15.1239347,8.61553746 14.5211802,8.02384376 13.7797086,8.02384376 L13.7797086,8.02384376 Z"></path>
                </g>
                <polygon id="Shape" points="0 0 48 0 48 48 0 48"></polygon>
            </g>
        </g>
    </g>
</svg>