<?xml version="1.0" encoding="UTF-8"?>
<svg width="34px" height="33px" viewBox="0 0 34 33" version="1.1" xmlns="http://www.w3.org/2000/svg" xmlns:xlink="http://www.w3.org/1999/xlink">
    <!-- Generator: Sketch 43.2 (39069) - http://www.bohemiancoding.com/sketch -->
    <title>cat</title>
    <desc>Created with Sketch.</desc>
    <defs></defs>
    <g id="Welcome" stroke="none" stroke-width="1" fill="none" fill-rule="evenodd">
        <g id="Main" transform="translate(-190.000000, -99.000000)" fill="#2F3B52">
            <g id="Filter" transform="translate(76.000000, 92.000000)">
                <g id="Btn-Group">
                    <path d="M126.258125,21.9056693 C126.258125,20.8191284 125.367299,19.9348513 124.27146,19.9348513 C123.176182,19.9348513 122.284794,20.8191284 122.284794,21.9056693 C122.284794,22.9927674 123.176182,23.8770445 124.27146,23.8770445 C125.367299,23.8770445 126.258125,22.9927674 126.258125,21.9056693 L126.258125,21.9056693 Z M124.27146,22.9337042 C123.70023,22.9337042 123.23572,22.4728994 123.23572,21.9056693 C123.23572,21.3395537 123.70023,20.8781917 124.27146,20.8781917 C124.842689,20.8781917 125.307761,21.3395537 125.307761,21.9056693 C125.307761,22.4728994 124.842689,22.9337042 124.27146,22.9337042 L124.27146,22.9337042 Z M144.05948,28.4767343 L139.889561,27.4414558 C139.635681,27.3812782 139.377308,27.5322795 139.313276,27.7846913 C139.249244,28.0371031 139.403707,28.2928581 139.65871,28.356379 L143.766844,29.376613 C141.801523,34.7040065 136.639113,38.5169292 130.596549,38.5169292 C124.553985,38.5169292 119.392137,34.7040065 117.426816,29.376613 L121.534388,28.356379 C121.789392,28.2928581 121.943854,28.0371031 121.880384,27.7846913 C121.816352,27.5322795 121.559102,27.3812782 121.303538,27.4414558 L117.133618,28.4767343 C116.988704,27.9802687 116.870751,27.4732163 116.781444,26.9561342 L121.419244,26.9561342 C121.681549,26.9561342 121.894426,26.7449553 121.894426,26.4841854 C121.894426,26.2234156 121.681549,26.0122367 121.419244,26.0122367 L116.649449,26.0122367 C116.60283,25.5514319 116.578116,25.0839407 116.578116,24.6108775 C116.578116,24.5245115 116.583171,24.4403742 116.584856,24.3545653 L121.303538,25.5263579 C121.342294,25.5358303 121.38105,25.5408451 121.419244,25.5408451 C121.632683,25.5408451 121.825901,25.3976446 121.880384,25.1831224 C121.943854,24.9307106 121.789392,24.6749556 121.534388,24.6108775 L116.634845,23.3945089 C116.853339,20.9071661 117.734055,18.6059282 119.101748,16.6646419 C119.242168,16.4657213 119.387644,16.2712583 119.537051,16.0806958 C119.594342,16.0077025 119.651072,15.9347093 119.709487,15.8633876 C119.882485,15.6516514 120.060538,15.4449301 120.244769,15.2443379 C120.313294,15.169673 120.384627,15.0983514 120.454838,15.0253581 C120.586833,14.8877296 120.721636,14.7528871 120.859248,14.6208306 C120.944623,14.5389221 121.029999,14.4564565 121.117059,14.3767768 C121.309154,14.2018159 121.504619,14.0313125 121.705701,13.8674956 C121.787145,13.8011887 121.870835,13.7387823 121.953964,13.674147 C122.111796,13.5510057 122.272437,13.4306504 122.435325,13.3147527 C122.515083,13.2579183 122.59428,13.2005266 122.675162,13.1453638 C122.912754,12.9843329 123.153715,12.8283167 123.401416,12.681773 C123.441295,12.6578134 123.482298,12.6355254 123.522739,12.612123 C123.77044,12.4683652 124.022635,12.3312939 124.279885,12.2025806 C124.306846,12.1886506 124.333245,12.1747206 124.360205,12.161905 C124.655088,12.0164757 124.955025,11.8799616 125.261703,11.7545915 C125.26395,11.7540343 125.265635,11.7523627 125.267882,11.7512483 C126.911922,11.0781501 128.710424,10.7048258 130.596549,10.7048258 C132.482674,10.7048258 134.281738,11.0781501 135.925778,11.7512483 C135.928025,11.7518055 135.92971,11.7540343 135.931957,11.7545915 C136.238073,11.8799616 136.538572,12.0164757 136.833454,12.161905 C136.859853,12.1747206 136.886814,12.1886506 136.913213,12.2025806 C137.170463,12.3312939 137.422658,12.4683652 137.670359,12.612123 C137.7108,12.6355254 137.751803,12.6578134 137.792244,12.681773 C138.039383,12.8283167 138.280906,12.9843329 138.517936,13.1453638 C138.598818,13.2005266 138.678015,13.2579183 138.757773,13.3147527 C138.920661,13.4306504 139.08074,13.5510057 139.238572,13.6735898 C139.321701,13.7382251 139.406515,13.8011887 139.487959,13.8680528 C139.688479,14.0313125 139.883944,14.2018159 140.075477,14.3762196 C140.163661,14.4564565 140.249598,14.5394793 140.335535,14.6225022 C140.471462,14.7528871 140.605142,14.8866152 140.736014,15.0231293 C140.807347,15.097237 140.880366,15.169673 140.949453,15.2454523 C141.133122,15.4449301 141.310052,15.650537 141.481926,15.8611588 C141.542026,15.9347093 141.600441,16.0099313 141.659417,16.0845962 C141.805454,16.2712583 141.94756,16.4612637 142.08461,16.6557267 C143.456235,18.5986846 144.339197,20.9027085 144.558253,23.3945089 L139.65871,24.6108775 C139.403707,24.6749556 139.249244,24.9307106 139.313276,25.1831224 C139.367197,25.3976446 139.560977,25.5408451 139.773854,25.5408451 C139.812049,25.5408451 139.850805,25.5358303 139.889561,25.5263579 L144.608242,24.3545653 C144.609927,24.4403742 144.614983,24.5245115 144.614983,24.6108775 C144.614983,25.0839407 144.59083,25.5514319 144.544211,26.0122367 L139.774416,26.0122367 C139.511549,26.0122367 139.298672,26.2234156 139.298672,26.4841854 C139.298672,26.7449553 139.511549,26.9561342 139.774416,26.9561342 L144.411654,26.9561342 C144.322908,27.4732163 144.204955,27.9802687 144.05948,28.4767343 L144.05948,28.4767343 Z M118.358083,16.0678802 C117.690806,15.0682626 117.061161,13.5298321 116.7601,12.1223438 C116.365239,10.2735527 116.54947,8.88333753 117.265613,8.30774946 C117.566674,8.06592447 117.987373,7.94334037 118.515915,7.94334037 C120.413273,7.94334037 123.256502,9.51631725 124.686542,10.9700532 C124.389974,11.0970949 124.099585,11.2347234 123.813128,11.3801528 C123.772687,11.400212 123.732808,11.4208284 123.692928,11.4414448 C123.413211,11.5857597 123.137426,11.7367611 122.868381,11.897792 C122.861079,11.9022496 122.853215,11.9067072 122.845352,11.9111648 C122.595404,12.0616089 122.351634,12.2215254 122.111796,12.3864568 C122.014626,12.4522064 121.919702,12.5207421 121.824216,12.5892777 C121.675932,12.6962602 121.529895,12.8060287 121.385543,12.918026 C121.286687,12.9949197 121.186708,13.0695845 121.090099,13.148707 C120.889579,13.3125239 120.693552,13.4824701 120.501457,13.6568738 C120.398108,13.7504835 120.298129,13.8479936 120.197026,13.9449464 C120.079073,14.0580581 119.963367,14.1728414 119.849346,14.2892963 C119.756106,14.3851348 119.662306,14.4798589 119.571875,14.5779262 C119.387644,14.7768467 119.208468,14.9802249 119.03547,15.1886179 C118.974247,15.2627255 118.916393,15.339062 118.856855,15.414284 C118.72149,15.583673 118.589495,15.7564051 118.461432,15.9319233 C118.427731,15.9781709 118.39066,16.0210753 118.358083,16.0678802 L118.358083,16.0678802 Z M142.677183,7.94334037 C143.205725,7.94334037 143.626424,8.06592447 143.927485,8.30774946 C144.643628,8.88333753 144.82786,10.2735527 144.432998,12.1223438 C144.131937,13.5298321 143.502293,15.0682626 142.835577,16.0667658 C142.800753,16.0177321 142.761435,15.9725989 142.726049,15.9235653 C142.601918,15.7541763 142.474416,15.5875734 142.343545,15.4231993 C142.280636,15.3440768 142.219975,15.2632827 142.155382,15.1858319 C141.983507,14.9785533 141.805454,14.7768467 141.622346,14.5795978 C141.530792,14.4804161 141.43643,14.3845776 141.342629,14.2881819 C141.228608,14.171727 141.113463,14.0569437 140.996072,13.9443892 C140.895531,13.8479936 140.795552,13.7510407 140.692203,13.657431 C140.500108,13.4824701 140.303519,13.3125239 140.101876,13.1475926 C140.00639,13.0695845 139.908096,12.9960341 139.810925,12.9202548 C139.664888,12.8071431 139.517166,12.695703 139.366636,12.5876061 C139.272835,12.5201849 139.179034,12.4527636 139.082987,12.387014 C138.842026,12.2220826 138.597694,12.0616089 138.346623,11.9106076 C138.341006,11.9072644 138.334828,11.9039212 138.329211,11.900578 C138.058481,11.7378755 137.780449,11.5863169 137.499046,11.4403304 C137.459729,11.4202712 137.420411,11.400212 137.381093,11.38071 C137.094636,11.2352806 136.803685,11.0970949 136.507118,10.9700532 C137.937158,9.51631725 140.779825,7.94334037 142.677183,7.94334037 L142.677183,7.94334037 Z M146.717354,26.9561342 C146.980221,26.9561342 147.192536,26.7449553 147.192536,26.4841854 C147.192536,26.2234156 146.980221,26.0122367 146.717354,26.0122367 L145.496822,26.0122367 C145.540633,25.5508747 145.565908,25.0833835 145.565908,24.6108775 C145.565908,24.4459462 145.558607,24.2832437 145.55299,24.1199839 L146.684215,23.8391549 C146.939218,23.7750768 147.093681,23.519879 147.030211,23.26691 C146.966179,23.0144982 146.710052,22.8634969 146.453364,22.9236746 L145.493452,23.1621563 C145.270464,20.8910073 144.531854,18.7675164 143.392203,16.9109245 C144.218997,15.8210404 145.000857,14.0134821 145.363142,12.3179211 C145.841694,10.0779753 145.544003,8.39355833 144.525675,7.57503087 C144.051617,7.19390576 143.429274,7 142.677183,7 C140.208595,7 136.909281,9.07947209 135.559562,10.6034153 C134.005391,10.0601449 132.336075,9.76092825 130.596549,9.76092825 C128.857585,9.76092825 127.187707,10.0601449 125.633536,10.6034153 C124.283817,9.07947209 120.985064,7 118.515915,7 C117.763824,7 117.142043,7.19390576 116.667423,7.57503087 C115.649095,8.39355833 115.351966,10.0779753 115.830518,12.3179211 C116.192802,14.0134821 116.974101,15.8210404 117.801457,16.9109245 C116.661806,18.7675164 115.922634,20.8910073 115.699647,23.1621563 L114.739734,22.9236746 C114.485292,22.8634969 114.227481,23.0144982 114.163449,23.26691 C114.099418,23.519879 114.25388,23.7750768 114.508883,23.8391549 L115.640108,24.1199839 C115.635053,24.2832437 115.627751,24.4459462 115.627751,24.6108775 C115.627751,25.0833835 115.652465,25.5508747 115.696277,26.0122367 L114.475744,26.0122367 C114.212877,26.0122367 114,26.2234156 114,26.4841854 C114,26.7449553 114.212877,26.9561342 114.475744,26.9561342 L115.815915,26.9561342 C115.911962,27.5517815 116.045642,28.1351704 116.211338,28.7057437 L114.508883,29.1286588 C114.25388,29.1921796 114.099418,29.4479347 114.163449,29.7003465 C114.217371,29.9148686 114.41115,30.0580692 114.624028,30.0580692 C114.662222,30.0580692 114.700978,30.0530544 114.739734,30.0435819 L116.501727,29.6061796 C118.57433,35.3436727 124.109134,39.4602696 130.596549,39.4602696 C137.084526,39.4602696 142.61933,35.3436727 144.691933,29.6061796 L146.453364,30.0435819 C146.49212,30.0530544 146.530876,30.0580692 146.569071,30.0580692 C146.782509,30.0580692 146.975728,29.9148686 147.030211,29.7003465 C147.093681,29.4479347 146.939218,29.1921796 146.684215,29.1286588 L144.982322,28.7057437 C145.147456,28.1351704 145.281136,27.5517815 145.377184,26.9561342 L146.717354,26.9561342 L146.717354,26.9561342 Z M129.560809,26.4841854 C129.560809,25.9169554 130.025881,25.4561506 130.596549,25.4561506 C131.167779,25.4561506 131.632289,25.9169554 131.632289,26.4841854 C131.632289,27.0508583 131.167779,27.5116631 130.596549,27.5116631 C130.025881,27.5116631 129.560809,27.0508583 129.560809,26.4841854 L129.560809,26.4841854 Z M135.671337,28.6550384 C135.409032,28.6550384 135.196154,28.8662174 135.196154,29.1269872 C135.196154,30.2547609 134.271066,31.1724701 133.134224,31.1724701 C131.99682,31.1724701 131.071731,30.2547609 131.071731,29.1269872 L131.071731,28.3914826 C131.937282,28.178632 132.583215,27.4074666 132.583215,26.4841854 C132.583215,25.3970874 131.691827,24.5128102 130.596549,24.5128102 C129.501271,24.5128102 128.610445,25.3970874 128.610445,26.4841854 C128.610445,27.4074666 129.255817,28.178632 130.121367,28.3914826 L130.121367,29.1269872 C130.121367,30.2547609 129.196278,31.1724701 128.059436,31.1724701 C126.922032,31.1724701 125.996944,30.2547609 125.996944,29.1269872 C125.996944,28.8662174 125.784067,28.6550384 125.521762,28.6550384 C125.259457,28.6550384 125.046579,28.8662174 125.046579,29.1269872 C125.046579,30.7751861 126.397984,32.1158104 128.059436,32.1158104 C129.127192,32.1158104 130.061267,31.5580528 130.596549,30.7239237 C131.131831,31.5580528 132.065906,32.1158104 133.134224,32.1158104 C134.795114,32.1158104 136.146519,30.7751861 136.146519,29.1269872 C136.146519,28.8662174 135.934203,28.6550384 135.671337,28.6550384 L135.671337,28.6550384 Z M136.921638,22.9337042 C136.350409,22.9337042 135.885899,22.4728994 135.885899,21.9056693 C135.885899,21.3395537 136.350409,20.8781917 136.921638,20.8781917 C137.492868,20.8781917 137.95794,21.3395537 137.95794,21.9056693 C137.95794,22.4728994 137.492868,22.9337042 136.921638,22.9337042 L136.921638,22.9337042 Z M136.921638,19.9348513 C135.82636,19.9348513 134.934973,20.8191284 134.934973,21.9056693 C134.934973,22.9927674 135.82636,23.8770445 136.921638,23.8770445 C138.017478,23.8770445 138.908304,22.9927674 138.908304,21.9056693 C138.908304,20.8191284 138.017478,19.9348513 136.921638,19.9348513 L136.921638,19.9348513 Z" id="cat"></path>
                </g>
            </g>
        </g>
    </g>
</svg>