<?xml version="1.0" encoding="UTF-8"?>
<svg width="32px" height="44px" viewBox="0 0 32 44" version="1.1" xmlns="http://www.w3.org/2000/svg" xmlns:xlink="http://www.w3.org/1999/xlink">
    <!-- Generator: Sketch 43.2 (39069) - http://www.bohemiancoding.com/sketch -->
    <title>ic_place_48px</title>
    <desc>Created with Sketch.</desc>
    <defs>
        <path d="M14,0 C6.27,0 0,6.27 0,14 C0,24.5 14,40 14,40 C14,40 28,24.5 28,14 C28,6.27 21.73,0 14,0 Z" id="path-1"></path>
        <filter x="-12.5%" y="-6.2%" width="125.0%" height="117.5%" filterUnits="objectBoundingBox" id="filter-2">
            <feOffset dx="0" dy="1" in="SourceAlpha" result="shadowOffsetOuter1"></feOffset>
            <feGaussianBlur stdDeviation="1" in="shadowOffsetOuter1" result="shadowBlurOuter1"></feGaussianBlur>
            <feColorMatrix values="0 0 0 0 0   0 0 0 0 0   0 0 0 0 0  0 0 0 0.5 0" type="matrix" in="shadowBlurOuter1"></feColorMatrix>
        </filter>
    </defs>
    <g id="Welcome" stroke="none" stroke-width="1" fill="none" fill-rule="evenodd">
        <g id="Main" transform="translate(-608.000000, -402.000000)">
            <g id="ic_place_48px" transform="translate(610.000000, 403.000000)">
                <g id="Shape" fill-rule="nonzero">
                    <use fill="black" fill-opacity="1" filter="url(#filter-2)" xlink:href="#path-1"></use>
                    <use fill="#FC1474" fill-rule="evenodd" xlink:href="#path-1"></use>
                </g>
                <g id="dog" transform="translate(2.000000, 5.000000)" fill="#F6F6F8">
                    <path d="M9.62405244,6.80134365 C9.62405244,6.16197671 9.09856798,5.64189709 8.4521492,5.64189709 C7.80606174,5.64189709 7.28024596,6.16197671 7.28024596,6.80134365 C7.28024596,7.44038287 7.80606174,7.96046249 8.4521492,7.96046249 C9.09856798,7.96046249 9.62405244,7.44038287 9.62405244,6.80134365 L9.62405244,6.80134365 Z M8.4521492,7.40531764 C8.11518974,7.40531764 7.8411824,7.13429947 7.8411824,6.80134365 C7.8411824,6.46806011 8.11518974,6.19704194 8.4521492,6.19704194 C8.78910865,6.19704194 9.06344733,6.46806011 9.06344733,6.80134365 C9.06344733,7.13429947 8.78910865,7.40531764 8.4521492,7.40531764 L8.4521492,7.40531764 Z M15.5167013,10.2223336 C15.3652849,10.1905455 15.2161878,10.2849267 15.1830552,10.4346913 C15.0906149,10.8574403 14.5992572,11.1418947 13.9604589,11.1418947 C13.5062097,11.1418947 12.7441578,11.0576726 12.7441578,10.4933518 L12.7441578,10.0607714 C13.2547326,9.93558527 13.6357585,9.48203127 13.6357585,8.93868407 C13.6357585,8.29964485 13.1099427,7.77956523 12.4638553,7.77956523 C11.8174365,7.77956523 11.2919521,8.29964485 11.2919521,8.93868407 C11.2919521,9.48203127 11.672978,9.93558527 12.1835527,10.0607714 L12.1835527,10.4933518 C12.1835527,11.0576726 11.4211695,11.1418947 10.9669204,11.1418947 C10.3284534,11.1418947 9.83709564,10.8574403 9.7443241,10.4343636 C9.71152274,10.284599 9.560769,10.1905455 9.41100924,10.2223336 C9.25959285,10.2551049 9.16317672,10.4025755 9.19630941,10.55234 C9.320557,11.1189548 9.83245706,11.5269568 10.519629,11.6524707 C10.5189664,11.6596803 10.5153218,11.6662346 10.5153218,11.6740997 L10.5153218,13.8717392 C10.5153218,14.9358214 11.3903561,15.8016377 12.4661746,15.8016377 C13.541993,15.8016377 14.4173587,14.9358214 14.4173587,13.8717392 L14.4170274,11.6878636 L14.4173587,11.6813094 L14.2934424,11.6750828 C15.0399219,11.5774245 15.6001957,11.1507429 15.7314012,10.5520123 C15.7642025,10.4025755 15.6681177,10.2547772 15.5167013,10.2223336 L15.5167013,10.2223336 Z M11.8525572,8.93868407 C11.8525572,8.60540054 12.1268958,8.33438236 12.4638553,8.33438236 C12.8008147,8.33438236 13.0748221,8.60540054 13.0748221,8.93868407 C13.0748221,9.27196761 12.8008147,9.5433135 12.4638553,9.5433135 C12.1268958,9.5433135 11.8525572,9.27196761 11.8525572,8.93868407 L11.8525572,8.93868407 Z M12.4661746,15.2468205 C11.6994841,15.2468205 11.0759269,14.6300657 11.0759269,13.8717392 L11.0755956,11.6911407 C11.7130685,11.6740997 12.1881913,11.5125375 12.4638553,11.2238228 C12.7401819,11.5131929 13.2169613,11.6747551 13.8567536,11.6914684 L13.8567536,13.8717392 C13.8567536,14.6300657 13.232865,15.2468205 12.4661746,15.2468205 L12.4661746,15.2468205 Z M20.5906415,12.3154329 C21.1780841,11.1297693 21.5090796,9.79860147 21.5090796,8.39173204 C21.5090796,5.76315069 20.357056,3.39608385 18.5261436,1.75784944 C21.3357957,2.36247886 24.9273793,6.10954272 24.9273793,8.69912629 C24.9273793,11.1523815 23.6219513,12.2436639 20.5906415,12.3154329 L20.5906415,12.3154329 Z M12.4638553,16.7837918 C7.78518815,16.7837918 3.97923606,13.0193592 3.97923606,8.39173204 C3.97923606,3.76443261 7.78518815,0 12.4638553,0 C17.1421911,0 20.9484745,3.76443261 20.9484745,8.39173204 C20.9484745,13.0193592 17.1421911,16.7837918 12.4638553,16.7837918 L12.4638553,16.7837918 Z M1.13686838e-13,8.69912629 C1.13686838e-13,6.10921501 3.59191491,2.36215115 6.40123569,1.75784944 C4.57065457,3.39608385 3.41829962,5.76315069 3.41829962,8.39173204 C3.41829962,9.79860147 3.74929519,11.1297693 4.33673778,12.3154329 C1.30542798,12.2436639 1.13686838e-13,11.1523815 1.13686838e-13,8.69912629 L1.13686838e-13,8.69912629 Z M16.4752301,7.40531764 C16.1382706,7.40531764 15.8642633,7.13429947 15.8642633,6.80134365 C15.8642633,6.46806011 16.1382706,6.19704194 16.4752301,6.19704194 C16.8121895,6.19704194 17.0865282,6.46806011 17.0865282,6.80134365 C17.0865282,7.13429947 16.8121895,7.40531764 16.4752301,7.40531764 L16.4752301,7.40531764 Z M16.4752301,5.64189709 C15.8291426,5.64189709 15.3033268,6.16197671 15.3033268,6.80134365 C15.3033268,7.44038287 15.8291426,7.96046249 16.4752301,7.96046249 C17.1216488,7.96046249 17.6471333,7.44038287 17.6471333,6.80134365 C17.6471333,6.16197671 17.1216488,5.64189709 16.4752301,5.64189709 L16.4752301,5.64189709 Z"></path>
                </g>
            </g>
        </g>
    </g>
</svg>