<?xml version="1.0" encoding="UTF-8"?>
<svg width="28px" height="40px" viewBox="0 0 28 40" version="1.1" xmlns="http://www.w3.org/2000/svg" xmlns:xlink="http://www.w3.org/1999/xlink">
    <!-- Generator: Sketch 43.2 (39069) - http://www.bohemiancoding.com/sketch -->
    <title>ic_place_48px</title>
    <desc>Created with Sketch.</desc>
    <defs>
        <linearGradient x1="100%" y1="61.0514343%" x2="0%" y2="61.0514343%" id="linearGradient-1">
            <stop stop-color="#5B7EFB" offset="0%"></stop>
            <stop stop-color="#8A61FA" offset="100%"></stop>
        </linearGradient>
    </defs>
    <g id="Welcome" stroke="none" stroke-width="1" fill="none" fill-rule="evenodd">
        <g id="Main" transform="translate(-702.000000, -385.000000)">
            <g id="ic_place_48px" transform="translate(692.000000, 381.000000)">
                <path d="M24,4 C16.27,4 10,10.27 10,18 C10,28.5 24,44 24,44 C24,44 38,28.5 38,18 C38,10.27 31.73,4 24,4 Z" id="Shape" fill="url(#linearGradient-1)" fill-rule="nonzero"></path>
                <g id="dog" transform="translate(12.000000, 9.000000)" fill="#F6F6F8">
                    <path d="M9.62405244,7.20142268 C9.62405244,6.52444592 9.09856798,5.97377339 8.4521492,5.97377339 C7.80606174,5.97377339 7.28024596,6.52444592 7.28024596,7.20142268 C7.28024596,7.87805245 7.80606174,8.42872499 8.4521492,8.42872499 C9.09856798,8.42872499 9.62405244,7.87805245 9.62405244,7.20142268 L9.62405244,7.20142268 Z M8.4521492,7.84092456 C8.11518974,7.84092456 7.8411824,7.55396414 7.8411824,7.20142268 C7.8411824,6.84853423 8.11518974,6.56157381 8.4521492,6.56157381 C8.78910865,6.56157381 9.06344733,6.84853423 9.06344733,7.20142268 C9.06344733,7.55396414 8.78910865,7.84092456 8.4521492,7.84092456 L8.4521492,7.84092456 Z M15.5167013,10.8236474 C15.3652849,10.7899894 15.2161878,10.8899224 15.1830552,11.0484967 C15.0906149,11.4961133 14.5992572,11.7973003 13.9604589,11.7973003 C13.5062097,11.7973003 12.7441578,11.7081239 12.7441578,11.1106078 L12.7441578,10.6525815 C13.2547326,10.5200315 13.6357585,10.0397978 13.6357585,9.46448902 C13.6357585,8.78785925 13.1099427,8.23718672 12.4638553,8.23718672 C11.8174365,8.23718672 11.2919521,8.78785925 11.2919521,9.46448902 C11.2919521,10.0397978 11.672978,10.5200315 12.1835527,10.6525815 L12.1835527,11.1106078 C12.1835527,11.7081239 11.4211695,11.7973003 10.9669204,11.7973003 C10.3284534,11.7973003 9.83709564,11.4961133 9.7443241,11.0481497 C9.71152274,10.8895754 9.560769,10.7899894 9.41100924,10.8236474 C9.25959285,10.8583463 9.16317672,11.0144917 9.19630941,11.1730659 C9.320557,11.773011 9.83245706,12.2050131 10.519629,12.3379101 C10.5189664,12.3455439 10.5153218,12.3524837 10.5153218,12.3608114 L10.5153218,14.6877238 C10.5153218,15.8143992 11.3903561,16.7311458 12.4661746,16.7311458 C13.541993,16.7311458 14.4173587,15.8143992 14.4173587,14.6877238 L14.4170274,12.375385 L14.4173587,12.3684452 L14.2934424,12.3618524 C15.0399219,12.2584495 15.6001957,11.806669 15.7314012,11.1727189 C15.7642025,11.0144917 15.6681177,10.8579994 15.5167013,10.8236474 L15.5167013,10.8236474 Z M11.8525572,9.46448902 C11.8525572,9.11160057 12.1268958,8.82464015 12.4638553,8.82464015 C12.8008147,8.82464015 13.0748221,9.11160057 13.0748221,9.46448902 C13.0748221,9.81737747 12.8008147,10.1046849 12.4638553,10.1046849 C12.1268958,10.1046849 11.8525572,9.81737747 11.8525572,9.46448902 L11.8525572,9.46448902 Z M12.4661746,16.1436923 C11.6994841,16.1436923 11.0759269,15.4906578 11.0759269,14.6877238 L11.0755956,12.3788549 C11.7130685,12.3608114 12.1881913,12.1897455 12.4638553,11.8840477 C12.7401819,12.1904395 13.2169613,12.3615054 13.8567536,12.3792019 L13.8567536,14.6877238 C13.8567536,15.4906578 13.232865,16.1436923 12.4661746,16.1436923 L12.4661746,16.1436923 Z M20.5906415,13.0398701 C21.1780841,11.7844617 21.5090796,10.3749898 21.5090796,8.88536334 C21.5090796,6.10215955 20.357056,3.59585349 18.5261436,1.86125235 C21.3357957,2.50144821 24.9273793,6.46892758 24.9273793,9.2108396 C24.9273793,11.8084039 23.6219513,12.9638794 20.5906415,13.0398701 L20.5906415,13.0398701 Z M12.4638553,17.7710737 C7.78518815,17.7710737 3.97923606,13.7852038 3.97923606,8.88536334 C3.97923606,3.98586983 7.78518815,0 12.4638553,0 C17.1421911,0 20.9484745,3.98586983 20.9484745,8.88536334 C20.9484745,13.7852038 17.1421911,17.7710737 12.4638553,17.7710737 L12.4638553,17.7710737 Z M1.13686838e-13,9.2108396 C1.13686838e-13,6.4685806 3.59191491,2.50110122 6.40123569,1.86125235 C4.57065457,3.59585349 3.41829962,6.10215955 3.41829962,8.88536334 C3.41829962,10.3749898 3.74929519,11.7844617 4.33673778,13.0398701 C1.30542798,12.9638794 1.13686838e-13,11.8084039 1.13686838e-13,9.2108396 L1.13686838e-13,9.2108396 Z M16.4752301,7.84092456 C16.1382706,7.84092456 15.8642633,7.55396414 15.8642633,7.20142268 C15.8642633,6.84853423 16.1382706,6.56157381 16.4752301,6.56157381 C16.8121895,6.56157381 17.0865282,6.84853423 17.0865282,7.20142268 C17.0865282,7.55396414 16.8121895,7.84092456 16.4752301,7.84092456 L16.4752301,7.84092456 Z M16.4752301,5.97377339 C15.8291426,5.97377339 15.3033268,6.52444592 15.3033268,7.20142268 C15.3033268,7.87805245 15.8291426,8.42872499 16.4752301,8.42872499 C17.1216488,8.42872499 17.6471333,7.87805245 17.6471333,7.20142268 C17.6471333,6.52444592 17.1216488,5.97377339 16.4752301,5.97377339 L16.4752301,5.97377339 Z"></path>
                </g>
                <polygon id="Shape" points="0 0 48 0 48 48 0 48"></polygon>
            </g>
        </g>
    </g>
</svg>