<?xml version="1.0" encoding="UTF-8"?>
<svg width="44px" height="31px" viewBox="0 0 44 31" version="1.1" xmlns="http://www.w3.org/2000/svg" xmlns:xlink="http://www.w3.org/1999/xlink">
    <!-- Generator: Sketch 43.2 (39069) - http://www.bohemiancoding.com/sketch -->
    <title>dog</title>
    <desc>Created with Sketch.</desc>
    <defs></defs>
    <g id="Welcome" stroke="none" stroke-width="1" fill="none" fill-rule="evenodd">
        <g id="Main" transform="translate(-102.000000, -108.000000)" fill="#2F3B52">
            <g id="Filter" transform="translate(76.000000, 100.000000)">
                <g id="Btn-Group">
                    <path d="M43.1265096,20.5071046 C43.1265096,19.4200874 42.2428555,18.5358761 41.1558383,18.5358761 C40.0693783,18.5358761 39.1851671,19.4200874 39.1851671,20.5071046 C39.1851671,21.5935646 40.0693783,22.4777759 41.1558383,22.4777759 C42.2428555,22.4777759 43.1265096,21.5935646 43.1265096,20.5071046 L43.1265096,20.5071046 Z M41.1558383,21.5339486 C40.5892077,21.5339486 40.1284372,21.0731781 40.1284372,20.5071046 C40.1284372,19.9404739 40.5892077,19.4797034 41.1558383,19.4797034 C41.722469,19.4797034 42.1837966,19.9404739 42.1837966,20.5071046 C42.1837966,21.0731781 41.722469,21.5339486 41.1558383,21.5339486 L41.1558383,21.5339486 Z M53.0355819,26.3232871 C52.7809603,26.2692427 52.5302387,26.4297044 52.4745228,26.6843261 C52.3190755,27.4030612 51.4928087,27.8866752 50.4186062,27.8866752 C49.6547413,27.8866752 48.3732756,27.7434853 48.3732756,26.7840576 L48.3732756,26.0486077 C49.2318576,25.835773 49.8725904,25.064665 49.8725904,24.1408954 C49.8725904,23.0544354 48.9883792,22.1702241 47.9019192,22.1702241 C46.814902,22.1702241 45.9312479,23.0544354 45.9312479,24.1408954 C45.9312479,25.064665 46.5719807,25.835773 47.4305627,26.0486077 L47.4305627,26.7840576 C47.4305627,27.7434853 46.1485399,27.8866752 45.3846749,27.8866752 C44.3110296,27.8866752 43.4847628,27.4030612 43.3287583,26.6837689 C43.2735996,26.4291473 43.0200923,26.2692427 42.7682564,26.3232871 C42.5136347,26.379003 42.3515015,26.6297245 42.4072174,26.8843462 C42.616152,27.847674 43.4769626,28.541337 44.6325103,28.7547288 C44.631396,28.7669863 44.6252672,28.7781295 44.6252672,28.7915013 L44.6252672,32.5278094 C44.6252672,34.3369046 46.0967241,35.8089186 47.9058193,35.8089186 C49.7149145,35.8089186 51.1869285,34.3369046 51.1869285,32.5278094 L51.1863713,28.814902 L51.1869285,28.8037588 L50.978551,28.7931728 C52.2338302,28.6271394 53.175986,27.9017185 53.3966209,26.883789 C53.4517797,26.6297245 53.2902036,26.3784458 53.0355819,26.3232871 L53.0355819,26.3232871 Z M46.8739609,24.1408954 C46.8739609,23.5742647 47.3352885,23.1134943 47.9019192,23.1134943 C48.4685498,23.1134943 48.9293203,23.5742647 48.9293203,24.1408954 C48.9293203,24.7075261 48.4685498,25.1688537 47.9019192,25.1688537 C47.3352885,25.1688537 46.8739609,24.7075261 46.8739609,24.1408954 L46.8739609,24.1408954 Z M47.9058193,34.8656484 C46.6165534,34.8656484 45.5679802,33.8170752 45.5679802,32.5278094 L45.5674231,28.8204736 C46.6393969,28.7915013 47.4383629,28.516822 47.9019192,28.0259649 C48.3665897,28.5179363 49.1683415,28.7926156 50.2442155,28.8210308 L50.2442155,32.5278094 C50.2442155,33.8170752 49.1950851,34.8656484 47.9058193,34.8656484 L47.9058193,34.8656484 Z M61.5679144,29.8818614 C62.5557573,27.8660603 63.1123591,25.6028805 63.1123591,23.2109971 C63.1123591,18.742025 61.1751173,14.7176657 58.0962569,11.932428 C62.8209649,12.9603863 68.8605682,19.330942 68.8605682,23.7336122 C68.8605682,27.9045042 66.6653618,29.7598436 61.5679144,29.8818614 L61.5679144,29.8818614 Z M47.9019192,37.478724 C40.0342773,37.478724 33.6341922,31.0786389 33.6341922,23.2109971 C33.6341922,15.3439124 40.0342773,8.9438273 47.9019192,8.9438273 C55.7690038,8.9438273 62.1696461,15.3439124 62.1696461,23.2109971 C62.1696461,31.0786389 55.7690038,37.478724 47.9019192,37.478724 L47.9019192,37.478724 Z M26.942713,23.7336122 C26.942713,19.3303848 32.9828734,12.9598292 37.7070243,11.932428 C34.628721,14.7176657 32.6909221,18.742025 32.6909221,23.2109971 C32.6909221,25.6028805 33.2475239,27.8660603 34.2353668,29.8818614 C29.1379193,29.7598436 26.942713,27.9045042 26.942713,23.7336122 L26.942713,23.7336122 Z M69.8038383,23.7336122 C69.8038383,18.4328017 62.1768892,10.8426251 56.8504494,10.8426251 C56.82092,10.8426251 56.7947335,10.856554 56.7663184,10.8621256 C54.2685747,9.06361648 51.2081005,8 47.9019192,8 C44.5957378,8 41.5352636,9.06361648 39.0369628,10.8621256 C39.0085477,10.856554 38.9823612,10.8426251 38.9528318,10.8426251 C33.626392,10.8426251 26,18.4328017 26,23.7336122 C26,30.0852245 30.9843442,30.833489 34.7490673,30.8368319 C37.3861007,35.3676487 42.2924426,38.4225513 47.9019192,38.4225513 C53.5113957,38.4225513 58.4171804,35.3676487 61.0542138,30.8368319 C64.818937,30.833489 69.8038383,30.0852245 69.8038383,23.7336122 L69.8038383,23.7336122 Z M54.6474428,21.5339486 C54.0808121,21.5339486 53.6200417,21.0731781 53.6200417,20.5071046 C53.6200417,19.9404739 54.0808121,19.4797034 54.6474428,19.4797034 C55.2140735,19.4797034 55.6754011,19.9404739 55.6754011,20.5071046 C55.6754011,21.0731781 55.2140735,21.5339486 54.6474428,21.5339486 L54.6474428,21.5339486 Z M54.6474428,18.5358761 C53.5609828,18.5358761 52.6767715,19.4200874 52.6767715,20.5071046 C52.6767715,21.5935646 53.5609828,22.4777759 54.6474428,22.4777759 C55.73446,22.4777759 56.6181141,21.5935646 56.6181141,20.5071046 C56.6181141,19.4200874 55.73446,18.5358761 54.6474428,18.5358761 L54.6474428,18.5358761 Z" id="dog"></path>
                </g>
            </g>
        </g>
    </g>
</svg>